<mxfile host="65bd71144e">
    <diagram id="nUYjNkuyurK-PycUt32I" name="Page-1">
        <mxGraphModel dx="388" dy="349" grid="1" gridSize="10" guides="1" tooltips="1" connect="1" arrows="1" fold="1" page="1" pageScale="1" pageWidth="850" pageHeight="1100" math="0" shadow="0">
            <root>
                <mxCell id="0"/>
                <mxCell id="1" parent="0"/>
                <mxCell id="3" style="edgeStyle=none;html=1;" parent="1" source="2" edge="1">
                    <mxGeometry relative="1" as="geometry">
                        <mxPoint x="180" y="160" as="targetPoint"/>
                    </mxGeometry>
                </mxCell>
                <mxCell id="2" value="app" style="rounded=0;whiteSpace=wrap;html=1;" parent="1" vertex="1">
                    <mxGeometry x="120" y="60" width="120" height="60" as="geometry"/>
                </mxCell>
                <mxCell id="6" value="" style="edgeStyle=none;html=1;" parent="1" source="4" target="5" edge="1">
                    <mxGeometry relative="1" as="geometry"/>
                </mxCell>
                <mxCell id="4" value="routes" style="ellipse;whiteSpace=wrap;html=1;aspect=fixed;" parent="1" vertex="1">
                    <mxGeometry x="140" y="160" width="80" height="80" as="geometry"/>
                </mxCell>
                <mxCell id="8" value="" style="edgeStyle=none;html=1;" parent="1" source="5" target="7" edge="1">
                    <mxGeometry relative="1" as="geometry"/>
                </mxCell>
                <mxCell id="5" value="pages" style="whiteSpace=wrap;html=1;" parent="1" vertex="1">
                    <mxGeometry x="120" y="330" width="120" height="60" as="geometry"/>
                </mxCell>
                <mxCell id="10" value="" style="edgeStyle=none;html=1;" parent="1" source="7" target="9" edge="1">
                    <mxGeometry relative="1" as="geometry"/>
                </mxCell>
                <mxCell id="7" value="views" style="rhombus;whiteSpace=wrap;html=1;" parent="1" vertex="1">
                    <mxGeometry x="140" y="460" width="80" height="80" as="geometry"/>
                </mxCell>
                <mxCell id="9" value="components" style="whiteSpace=wrap;html=1;" parent="1" vertex="1">
                    <mxGeometry x="120" y="630" width="120" height="60" as="geometry"/>
                </mxCell>
                <mxCell id="22" style="edgeStyle=none;html=1;entryX=1;entryY=0.5;entryDx=0;entryDy=0;" parent="1" source="11" target="7" edge="1">
                    <mxGeometry relative="1" as="geometry">
                        <mxPoint x="202.22222222222217" y="387.7777777777776" as="targetPoint"/>
                    </mxGeometry>
                </mxCell>
                <mxCell id="25" style="edgeStyle=none;html=1;entryX=1;entryY=1;entryDx=0;entryDy=0;" parent="1" source="11" target="4" edge="1">
                    <mxGeometry relative="1" as="geometry"/>
                </mxCell>
                <mxCell id="11" value="hooks" style="ellipse;whiteSpace=wrap;html=1;" parent="1" vertex="1">
                    <mxGeometry x="330" y="460" width="80" height="80" as="geometry"/>
                </mxCell>
                <mxCell id="24" value="" style="edgeStyle=none;html=1;" parent="1" source="13" target="23" edge="1">
                    <mxGeometry relative="1" as="geometry"/>
                </mxCell>
                <mxCell id="13" value="models" style="whiteSpace=wrap;html=1;" parent="1" vertex="1">
                    <mxGeometry x="310" y="290" width="120" height="30" as="geometry"/>
                </mxCell>
                <mxCell id="20" style="edgeStyle=none;html=1;entryX=0.5;entryY=0;entryDx=0;entryDy=0;" parent="1" source="15" target="17" edge="1">
                    <mxGeometry relative="1" as="geometry"/>
                </mxCell>
                <mxCell id="15" value="lib" style="whiteSpace=wrap;html=1;" parent="1" vertex="1">
                    <mxGeometry x="310" y="70" width="120" height="60" as="geometry"/>
                </mxCell>
                <mxCell id="19" style="edgeStyle=none;html=1;" parent="1" source="17" target="13" edge="1">
                    <mxGeometry relative="1" as="geometry"/>
                </mxCell>
                <mxCell id="17" value="services" style="ellipse;whiteSpace=wrap;html=1;" parent="1" vertex="1">
                    <mxGeometry x="330" y="170" width="80" height="80" as="geometry"/>
                </mxCell>
                <mxCell id="26" style="edgeStyle=none;html=1;entryX=0.5;entryY=0;entryDx=0;entryDy=0;" parent="1" source="23" target="11" edge="1">
                    <mxGeometry relative="1" as="geometry"/>
                </mxCell>
                <mxCell id="23" value="state stores" style="ellipse;whiteSpace=wrap;html=1;" parent="1" vertex="1">
                    <mxGeometry x="330" y="350" width="80" height="80" as="geometry"/>
                </mxCell>
                <mxCell id="47" value="main menu" style="swimlane;" parent="1" vertex="1">
                    <mxGeometry x="1540" y="70" width="270" height="430" as="geometry"/>
                </mxCell>
                <mxCell id="48" value="" style="rounded=1;whiteSpace=wrap;html=1;" parent="47" vertex="1">
                    <mxGeometry y="30" width="270" height="60" as="geometry"/>
                </mxCell>
                <mxCell id="49" value="acoount info" style="rounded=1;whiteSpace=wrap;html=1;" parent="47" vertex="1">
                    <mxGeometry x="80" y="30" width="120" height="60" as="geometry"/>
                </mxCell>
                <mxCell id="50" value="avatar" style="ellipse;whiteSpace=wrap;html=1;" parent="47" vertex="1">
                    <mxGeometry y="30" width="70" height="60" as="geometry"/>
                </mxCell>
                <mxCell id="51" value="" style="rounded=0;whiteSpace=wrap;html=1;" parent="47" vertex="1">
                    <mxGeometry x="10" y="100" width="250" height="300" as="geometry"/>
                </mxCell>
                <mxCell id="52" value="settings" style="rounded=1;whiteSpace=wrap;html=1;align=left;" parent="47" vertex="1">
                    <mxGeometry x="20" y="110" width="230" height="30" as="geometry"/>
                </mxCell>
                <mxCell id="53" value="" style="triangle;whiteSpace=wrap;html=1;" parent="47" vertex="1">
                    <mxGeometry x="230" y="120" width="10" height="10" as="geometry"/>
                </mxCell>
                <mxCell id="55" value="settings" style="rounded=1;whiteSpace=wrap;html=1;align=left;" parent="47" vertex="1">
                    <mxGeometry x="20" y="150" width="230" height="30" as="geometry"/>
                </mxCell>
                <mxCell id="56" value="" style="triangle;whiteSpace=wrap;html=1;" parent="47" vertex="1">
                    <mxGeometry x="230" y="160" width="10" height="10" as="geometry"/>
                </mxCell>
                <mxCell id="57" value="settings" style="rounded=1;whiteSpace=wrap;html=1;align=left;" parent="47" vertex="1">
                    <mxGeometry x="20" y="190" width="230" height="30" as="geometry"/>
                </mxCell>
                <mxCell id="58" value="" style="triangle;whiteSpace=wrap;html=1;" parent="47" vertex="1">
                    <mxGeometry x="230" y="200" width="10" height="10" as="geometry"/>
                </mxCell>
                <mxCell id="59" value="settings" style="rounded=1;whiteSpace=wrap;html=1;align=left;" parent="47" vertex="1">
                    <mxGeometry x="20" y="230" width="230" height="30" as="geometry"/>
                </mxCell>
                <mxCell id="60" value="" style="triangle;whiteSpace=wrap;html=1;" parent="47" vertex="1">
                    <mxGeometry x="230" y="240" width="10" height="10" as="geometry"/>
                </mxCell>
                <mxCell id="61" value="settings" style="rounded=1;whiteSpace=wrap;html=1;align=left;" parent="47" vertex="1">
                    <mxGeometry x="20" y="270" width="230" height="30" as="geometry"/>
                </mxCell>
                <mxCell id="62" value="" style="triangle;whiteSpace=wrap;html=1;" parent="47" vertex="1">
                    <mxGeometry x="230" y="280" width="10" height="10" as="geometry"/>
                </mxCell>
                <mxCell id="63" value="" style="triangle;whiteSpace=wrap;html=1;" parent="47" vertex="1">
                    <mxGeometry x="240" y="55" width="10" height="10" as="geometry"/>
                </mxCell>
            </root>
        </mxGraphModel>
    </diagram>
    <diagram id="U6MapswtRUuu3ScHu1Rq" name="state stores">
        <mxGraphModel dx="832" dy="480" grid="1" gridSize="10" guides="1" tooltips="1" connect="1" arrows="1" fold="1" page="1" pageScale="1" pageWidth="850" pageHeight="1100" math="0" shadow="0">
            <root>
                <mxCell id="0"/>
                <mxCell id="1" parent="0"/>
                <mxCell id="HqcznZ6IGom_95GGqZNp-1" value="state stores" style="swimlane;" vertex="1" parent="1">
                    <mxGeometry x="180" y="40" width="370" height="410" as="geometry"/>
                </mxCell>
                <mxCell id="HqcznZ6IGom_95GGqZNp-2" value="store&lt;br&gt;profile&lt;br&gt;session&lt;br&gt;loading" style="rounded=1;whiteSpace=wrap;html=1;" vertex="1" parent="HqcznZ6IGom_95GGqZNp-1">
                    <mxGeometry x="50" y="40" width="120" height="60" as="geometry"/>
                </mxCell>
            </root>
        </mxGraphModel>
    </diagram>
    <diagram id="dmkXrYC3ajWR2sjCeWEN" name="views">
        <mxGraphModel dx="601" dy="480" grid="1" gridSize="10" guides="1" tooltips="1" connect="1" arrows="1" fold="1" page="1" pageScale="1" pageWidth="850" pageHeight="1100" math="0" shadow="0">
            <root>
                <mxCell id="0"/>
                <mxCell id="1" parent="0"/>
                <mxCell id="K7NRuySlN7Pc6tKYPGdp-1" value="main view" style="swimlane;" parent="1" vertex="1">
                    <mxGeometry x="20" y="20" width="370" height="430" as="geometry"/>
                </mxCell>
                <mxCell id="K7NRuySlN7Pc6tKYPGdp-3" value="account" style="rounded=1;whiteSpace=wrap;html=1;" parent="K7NRuySlN7Pc6tKYPGdp-1" vertex="1">
                    <mxGeometry x="25" y="350" width="50" height="50" as="geometry"/>
                </mxCell>
                <mxCell id="K7NRuySlN7Pc6tKYPGdp-5" value="map" style="rounded=1;whiteSpace=wrap;html=1;" parent="K7NRuySlN7Pc6tKYPGdp-1" vertex="1">
                    <mxGeometry x="5" y="50" width="135" height="50" as="geometry"/>
                </mxCell>
                <mxCell id="K7NRuySlN7Pc6tKYPGdp-6" value="list" style="rounded=1;whiteSpace=wrap;html=1;" parent="K7NRuySlN7Pc6tKYPGdp-1" vertex="1">
                    <mxGeometry x="135" y="50" width="125" height="50" as="geometry"/>
                </mxCell>
                <mxCell id="K7NRuySlN7Pc6tKYPGdp-7" value="filter&lt;span style=&quot;color: rgba(0, 0, 0, 0); font-family: monospace; font-size: 0px; text-align: start;&quot;&gt;%3CmxGraphModel%3E%3Croot%3E%3CmxCell%20id%3D%220%22%2F%3E%3CmxCell%20id%3D%221%22%20parent%3D%220%22%2F%3E%3CmxCell%20id%3D%222%22%20value%3D%22map%22%20style%3D%22rounded%3D1%3BwhiteSpace%3Dwrap%3Bhtml%3D1%3B%22%20vertex%3D%221%22%20parent%3D%221%22%3E%3CmxGeometry%20x%3D%221080%22%20y%3D%22120%22%20width%3D%22135%22%20height%3D%2250%22%20as%3D%22geometry%22%2F%3E%3C%2FmxCell%3E%3C%2Froot%3E%3C%2FmxGraphModel%3E&lt;/span&gt;" style="rounded=1;whiteSpace=wrap;html=1;" parent="K7NRuySlN7Pc6tKYPGdp-1" vertex="1">
                    <mxGeometry x="260" y="50" width="110" height="50" as="geometry"/>
                </mxCell>
                <mxCell id="ivCHMKPxi0Y8w5rcxKgv-2" value="new order" style="swimlane;" parent="1" vertex="1">
                    <mxGeometry x="430" y="10" width="310" height="480" as="geometry"/>
                </mxCell>
                <mxCell id="ivCHMKPxi0Y8w5rcxKgv-3" value="required" style="html=1;shadow=0;dashed=0;shape=mxgraph.bootstrap.rrect;rSize=5;strokeColor=none;strokeWidth=1;fillColor=#0085FC;fontColor=#FFFFFF;whiteSpace=wrap;align=center;verticalAlign=middle;spacingLeft=0;fontStyle=1;fontSize=14;spacing=5;" parent="ivCHMKPxi0Y8w5rcxKgv-2" vertex="1">
                    <mxGeometry x="40" y="120" width="60" height="20" as="geometry"/>
                </mxCell>
            </root>
        </mxGraphModel>
    </diagram>
    <diagram id="4CclbecroxloKzrSMulM" name="new">
        <mxGraphModel dx="601" dy="480" grid="1" gridSize="10" guides="1" tooltips="1" connect="1" arrows="1" fold="1" page="1" pageScale="1" pageWidth="850" pageHeight="1100" math="0" shadow="0">
            <root>
                <mxCell id="0"/>
                <mxCell id="1" parent="0"/>
                <mxCell id="3T3Tz67nvzIa9mLZy731-1" value="Container" style="swimlane;" vertex="1" parent="1">
                    <mxGeometry x="160" y="10" width="320" height="440" as="geometry"/>
                </mxCell>
                <mxCell id="3T3Tz67nvzIa9mLZy731-3" value="" style="rounded=0;whiteSpace=wrap;html=1;" vertex="1" parent="3T3Tz67nvzIa9mLZy731-1">
                    <mxGeometry y="390" width="320" height="50" as="geometry"/>
                </mxCell>
                <mxCell id="3T3Tz67nvzIa9mLZy731-2" value="&amp;lt;-" style="html=1;shadow=0;dashed=0;shape=mxgraph.bootstrap.rrect;rSize=5;strokeColor=none;strokeWidth=1;fillColor=#0085FC;fontColor=#FFFFFF;whiteSpace=wrap;align=left;verticalAlign=middle;spacingLeft=0;fontStyle=1;fontSize=14;spacing=5;" vertex="1" parent="3T3Tz67nvzIa9mLZy731-1">
                    <mxGeometry x="30" y="400" width="20" height="20" as="geometry"/>
                </mxCell>
                <mxCell id="3T3Tz67nvzIa9mLZy731-4" value="&amp;lt;-" style="rounded=1;whiteSpace=wrap;html=1;" vertex="1" parent="3T3Tz67nvzIa9mLZy731-1">
                    <mxGeometry x="255" y="395" width="20" height="30" as="geometry"/>
                </mxCell>
                <mxCell id="3T3Tz67nvzIa9mLZy731-5" value="-&amp;gt;" style="rounded=1;whiteSpace=wrap;html=1;" vertex="1" parent="3T3Tz67nvzIa9mLZy731-1">
                    <mxGeometry x="290" y="395" width="20" height="30" as="geometry"/>
                </mxCell>
                <mxCell id="3T3Tz67nvzIa9mLZy731-6" value="title" style="text;html=1;strokeColor=none;fillColor=none;align=center;verticalAlign=middle;whiteSpace=wrap;rounded=0;fontSize=27;" vertex="1" parent="3T3Tz67nvzIa9mLZy731-1">
                    <mxGeometry x="160" y="395" width="60" height="30" as="geometry"/>
                </mxCell>
            </root>
        </mxGraphModel>
    </diagram>
    <diagram id="wIxbCE13JBidJRnXG7G9" name="host page">
        <mxGraphModel dx="1512" dy="480" grid="1" gridSize="10" guides="1" tooltips="1" connect="1" arrows="1" fold="1" page="1" pageScale="1" pageWidth="850" pageHeight="1100" math="0" shadow="0">
            <root>
                <mxCell id="0"/>
                <mxCell id="1" parent="0"/>
                <mxCell id="bFiJ9CVIFbkmWBhO8iNz-2" value="Vertical Container" style="swimlane;whiteSpace=wrap;html=1;" vertex="1" parent="1">
                    <mxGeometry x="210" y="10" width="350" height="470" as="geometry"/>
                </mxCell>
                <mxCell id="bFiJ9CVIFbkmWBhO8iNz-4" value="" style="rounded=1;whiteSpace=wrap;html=1;" vertex="1" parent="bFiJ9CVIFbkmWBhO8iNz-2">
                    <mxGeometry x="20" y="30" width="310" height="130" as="geometry"/>
                </mxCell>
                <mxCell id="bFiJ9CVIFbkmWBhO8iNz-5" value="" style="rounded=0;whiteSpace=wrap;html=1;" vertex="1" parent="bFiJ9CVIFbkmWBhO8iNz-2">
                    <mxGeometry x="20" y="170" width="310" height="290" as="geometry"/>
                </mxCell>
                <mxCell id="bFiJ9CVIFbkmWBhO8iNz-6" value="" style="rounded=0;whiteSpace=wrap;html=1;" vertex="1" parent="bFiJ9CVIFbkmWBhO8iNz-2">
                    <mxGeometry x="20" y="170" width="310" height="40" as="geometry"/>
                </mxCell>
                <mxCell id="bFiJ9CVIFbkmWBhO8iNz-8" value="bookings" style="rounded=1;whiteSpace=wrap;html=1;" vertex="1" parent="bFiJ9CVIFbkmWBhO8iNz-2">
                    <mxGeometry x="30" y="175" width="70" height="30" as="geometry"/>
                </mxCell>
                <mxCell id="bFiJ9CVIFbkmWBhO8iNz-9" value="reviews" style="rounded=1;whiteSpace=wrap;html=1;" vertex="1" parent="bFiJ9CVIFbkmWBhO8iNz-2">
                    <mxGeometry x="140" y="175" width="70" height="30" as="geometry"/>
                </mxCell>
                <mxCell id="bFiJ9CVIFbkmWBhO8iNz-10" value="settings" style="rounded=1;whiteSpace=wrap;html=1;" vertex="1" parent="bFiJ9CVIFbkmWBhO8iNz-2">
                    <mxGeometry x="245" y="175" width="60" height="30" as="geometry"/>
                </mxCell>
                <mxCell id="bFiJ9CVIFbkmWBhO8iNz-11" value="Vertical Container" style="swimlane;whiteSpace=wrap;html=1;" vertex="1" parent="1">
                    <mxGeometry x="-190" y="10" width="390" height="470" as="geometry"/>
                </mxCell>
                <mxCell id="bFiJ9CVIFbkmWBhO8iNz-12" value="&lt;font style=&quot;font-size: 24px;&quot;&gt;Start&lt;/font&gt;" style="rounded=1;whiteSpace=wrap;html=1;" vertex="1" parent="bFiJ9CVIFbkmWBhO8iNz-11">
                    <mxGeometry x="115" y="220" width="150" height="60" as="geometry"/>
                </mxCell>
                <mxCell id="bFiJ9CVIFbkmWBhO8iNz-13" value="&lt;font style=&quot;font-size: 16px;&quot;&gt;Welcome&lt;/font&gt;" style="text;html=1;align=center;verticalAlign=middle;resizable=0;points=[];autosize=1;strokeColor=none;fillColor=none;fontSize=24;" vertex="1" parent="bFiJ9CVIFbkmWBhO8iNz-11">
                    <mxGeometry x="145" y="50" width="90" height="40" as="geometry"/>
                </mxCell>
                <mxCell id="bFiJ9CVIFbkmWBhO8iNz-16" value="&lt;font style=&quot;font-size: 20px;&quot;&gt;Are You Ready for Hosting Your PLace&lt;/font&gt;" style="text;html=1;align=center;verticalAlign=middle;resizable=0;points=[];autosize=1;strokeColor=none;fillColor=none;fontSize=24;" vertex="1" parent="bFiJ9CVIFbkmWBhO8iNz-11">
                    <mxGeometry x="10" y="110" width="370" height="40" as="geometry"/>
                </mxCell>
            </root>
        </mxGraphModel>
    </diagram>
</mxfile>